<svg width="15" height="8" viewBox="0 0 15 8" fill="none" xmlns="http://www.w3.org/2000/svg">
<path d="M1.28107 0.325288C1.4686 0.137817 1.7229 0.0325012 1.98807 0.0325012C2.25323 0.0325012 2.50754 0.137817 2.69507 0.325288L7.64507 5.27529L12.5951 0.325288C12.7837 0.14313 13.0363 0.0423349 13.2985 0.0446134C13.5607 0.0468918 13.8115 0.152061 13.9969 0.337469C14.1823 0.522877 14.2875 0.773689 14.2897 1.03589C14.292 1.29808 14.1912 1.55069 14.0091 1.73929L8.35207 7.39629C8.16454 7.58376 7.91023 7.68907 7.64507 7.68907C7.3799 7.68907 7.1256 7.58376 6.93807 7.39629L1.28107 1.73929C1.0936 1.55176 0.988281 1.29745 0.988281 1.03229C0.988281 0.767123 1.0936 0.512815 1.28107 0.325288Z" fill="white" />
</svg>